<svg width="178" height="169" viewBox="0 0 178 169" fill="none" xmlns="http://www.w3.org/2000/svg">
<path d="M41.7273 30H40.1818C39.8939 28.4545 39.3333 26.8788 38.5 25.2727C37.6667 23.6667 36.5606 22.1818 35.1818 20.8182C33.803 19.4545 32.1742 18.3561 30.2955 17.5227C28.4167 16.6894 26.2879 16.2727 23.9091 16.2727C20.7273 16.2727 17.7803 17.1439 15.0682 18.8864C12.3712 20.6136 10.197 23.1515 8.54545 26.5C6.90909 29.8333 6.09091 33.9091 6.09091 38.7273C6.09091 43.6061 6.90909 47.7121 8.54545 51.0455C10.197 54.3788 12.3712 56.9015 15.0682 58.6136C17.7803 60.3258 20.7273 61.1818 23.9091 61.1818C26.2879 61.1818 28.4167 60.7727 30.2955 59.9545C32.1742 59.1212 33.803 58.0303 35.1818 56.6818C36.5606 55.3182 37.6667 53.8333 38.5 52.2273C39.3333 50.6061 39.8939 49.0152 40.1818 47.4545H41.7273C41.4394 49.0909 40.8636 50.7955 40 52.5682C39.1364 54.3258 37.9697 55.9697 36.5 57.5C35.0303 59.0303 33.25 60.2727 31.1591 61.2273C29.0682 62.1667 26.6515 62.6364 23.9091 62.6364C20.0909 62.6364 16.7348 61.6364 13.8409 59.6364C10.947 57.6364 8.68939 54.8409 7.06818 51.25C5.44697 47.6591 4.63636 43.4848 4.63636 38.7273C4.63636 33.9697 5.44697 29.7955 7.06818 26.2045C8.68939 22.6136 10.947 19.8182 13.8409 17.8182C16.7348 15.8182 20.0909 14.8182 23.9091 14.8182C26.6515 14.8182 29.0682 15.2879 31.1591 16.2273C33.25 17.1667 35.0303 18.4015 36.5 19.9318C37.9697 21.447 39.1364 23.0909 40 24.8636C40.8636 26.6212 41.4394 28.3333 41.7273 30ZM89.4318 38.7273C89.4318 43.4697 88.6212 47.6364 87 51.2273C85.3788 54.8182 83.1212 57.6212 80.2273 59.6364C77.3333 61.6364 73.9773 62.6364 70.1591 62.6364C66.3258 62.6364 62.9621 61.6288 60.0682 59.6136C57.1742 57.5985 54.9167 54.7955 53.2955 51.2045C51.6894 47.6136 50.8864 43.4545 50.8864 38.7273C50.8864 33.9848 51.697 29.8258 53.3182 26.25C54.9394 22.6591 57.197 19.8561 60.0909 17.8409C62.9848 15.8258 66.3409 14.8182 70.1591 14.8182C73.9773 14.8182 77.3333 15.8258 80.2273 17.8409C83.1212 19.8409 85.3788 22.6364 87 26.2273C88.6212 29.8182 89.4318 33.9848 89.4318 38.7273ZM87.9773 38.7273C87.9773 34.2727 87.2273 30.3636 85.7273 27C84.2273 23.6212 82.1364 20.9924 79.4545 19.1136C76.7879 17.2197 73.6894 16.2727 70.1591 16.2727C66.6439 16.2727 63.5455 17.2121 60.8636 19.0909C58.197 20.9545 56.1061 23.5758 54.5909 26.9545C53.0909 30.3182 52.3409 34.2424 52.3409 38.7273C52.3409 43.1515 53.0833 47.053 54.5682 50.4318C56.053 53.7955 58.1288 56.4318 60.7955 58.3409C63.4773 60.2348 66.5985 61.1818 70.1591 61.1818C73.6894 61.1818 76.7955 60.2424 79.4773 58.3636C82.1591 56.4697 84.25 53.8409 85.75 50.4773C87.25 47.0985 87.9924 43.1818 87.9773 38.7273ZM113.517 62H101.335V15.4545H114.699C118.987 15.4545 122.653 16.3788 125.699 18.2273C128.759 20.0606 131.1 22.697 132.722 26.1364C134.358 29.5758 135.169 33.7121 135.153 38.5455C135.138 43.5 134.275 47.7273 132.562 51.2273C130.866 54.7121 128.403 57.3788 125.176 59.2273C121.964 61.0758 118.078 62 113.517 62ZM102.79 60.5455H113.517C117.82 60.5455 121.479 59.6742 124.494 57.9318C127.509 56.1742 129.797 53.6515 131.358 50.3636C132.934 47.0758 133.714 43.1364 133.699 38.5455C133.684 34.0152 132.926 30.1364 131.426 26.9091C129.941 23.6818 127.79 21.2121 124.972 19.5C122.153 17.7727 118.729 16.9091 114.699 16.9091H102.79V60.5455ZM147.085 62V15.4545H171.903V16.9091H148.54V38H170.54V39.4545H148.54V60.5455H172.54V62H147.085Z" fill="black"/>
<path fill-rule="evenodd" clip-rule="evenodd" d="M156.913 133.383C161.743 131.065 165.529 127.771 168.273 123.5C171.242 118.924 172.727 113.303 172.727 106.636C172.727 100.03 171.288 94.3636 168.409 89.6364C165.53 84.9091 161.5 81.2879 156.318 78.7727C151.136 76.2576 145.091 75 138.182 75H98V94L123 116.636L146 138H132.5L148.364 168.091H175.818L156.913 133.383ZM123 116.636V95H132C134.97 95 137.682 95.5909 139.773 96.4091C141.894 97.197 143.515 98.4394 144.636 100.136C145.788 101.803 146.364 103.97 146.364 106.636C146.364 109.273 145.788 111.409 144.636 113.045C143.515 114.682 141.894 115.879 139.773 116.636C137.682 117.364 134.97 117.993 132 117.993H124.461L123 116.636Z" fill="#EC1D25"/>
<path fill-rule="evenodd" clip-rule="evenodd" d="M123 138V168H98V138H123Z" fill="#EC1D25"/>
<path d="M66.4545 104.636C66.0606 103.03 65.4394 101.621 64.5909 100.409C63.7424 99.1667 62.6818 98.1212 61.4091 97.2727C60.1667 96.3939 58.7121 95.7424 57.0454 95.3182C55.4091 94.8636 53.6061 94.6364 51.6364 94.6364C47.3939 94.6364 43.7727 95.6515 40.7727 97.6818C37.803 99.7121 35.5303 102.636 33.9545 106.455C32.4091 110.273 31.6364 114.879 31.6364 120.273C31.6364 125.727 32.3788 130.394 33.8636 134.273C35.3485 138.152 37.5606 141.121 40.5 143.182C43.4394 145.242 47.0909 146.273 51.4545 146.273C55.303 146.273 58.5 145.712 61.0454 144.591C63.6212 143.47 65.5454 141.879 66.8182 139.818C68.0909 137.758 68 137.288 68 134.5L67.9488 137H51.8182V118H93.0909V127.909C93.0909 136.394 91.2879 143.652 87.6818 149.682C84.106 155.682 79.1667 160.288 72.8636 163.5C66.5909 166.682 59.3939 168.273 51.2727 168.273C42.2121 168.273 34.2576 166.348 27.4091 162.5C20.5606 158.652 15.2121 153.167 11.3636 146.045C7.54544 138.924 5.63635 130.455 5.63635 120.636C5.63635 112.939 6.80302 106.121 9.13635 100.182C11.5 94.2424 14.7727 89.2273 18.9545 85.1364C23.1364 81.0151 27.9697 77.9091 33.4545 75.8182C38.9394 73.697 44.8182 72.6364 51.0909 72.6364C56.6061 72.6364 61.7273 73.4242 66.4545 75C71.2121 76.5454 75.4091 78.7576 79.0454 81.6364C82.7121 84.4848 85.6667 87.8636 87.9091 91.7727C90.1515 95.6818 91.5151 99.9697 92 104.636H66.4545Z" fill="#939598"/>
<path d="M52 118H123V137H52V118Z" fill="#939598"/>
<path d="M98 95L143.5 137L98.0001 137L98 95Z" fill="#939598"/>
</svg>
